<svg version="1.1" id="Layer_1" xmlns="http://www.w3.org/2000/svg" xmlns:xlink="http://www.w3.org/1999/xlink" x="0px" y="0px"
	 width="100%" viewBox="0 0 512 512" enable-background="new 0 0 512 512" xml:space="preserve">
<path fill="#2E5871" opacity="1.000000" stroke="none" 
	d="
M235.000000,1.000001 
	C249.354233,1.000000 263.708466,1.000000 278.717224,1.387703 
	C283.287262,2.181688 287.258911,2.299277 291.107941,3.047451 
	C303.515289,5.459173 315.999542,7.627231 328.230225,10.762694 
	C349.719604,16.271725 370.053986,24.862614 388.606537,37.057747 
	C400.957703,45.176491 412.958282,53.923317 424.493164,63.166054 
	C440.506378,75.997231 454.004547,91.350662 465.980011,107.997009 
	C479.127716,126.272797 489.688202,146.006393 497.467926,167.098068 
	C504.100800,185.080444 509.030823,203.571487 511.038696,222.738739 
	C511.469299,226.849213 512.334839,230.914108 513.000000,235.000000 
	C513.000000,249.354233 513.000000,263.708466 512.612183,278.717102 
	C511.818085,283.286499 511.725586,287.264954 510.949036,291.105011 
	C508.156281,304.915436 505.701080,318.831635 502.055542,332.422821 
	C497.253143,350.326935 489.566833,367.129150 480.373901,383.264740 
	C470.475739,400.638306 459.004395,416.839233 445.146576,431.239227 
	C437.453339,439.233459 429.549774,447.113953 421.047363,454.215179 
	C413.090118,460.861053 404.217621,466.411102 395.711182,472.021057 
	C392.421753,458.399506 389.070587,445.223633 385.941162,431.995331 
	C381.982025,415.259827 373.292175,402.332916 356.980865,395.483887 
	C343.158478,389.680023 329.273254,384.025757 315.011292,378.208740 
	C309.574860,376.677795 304.542999,375.243408 299.301697,373.564728 
	C295.773834,372.506744 292.341858,371.982269 289.190002,370.744446 
	C287.829010,370.209930 286.283142,368.274445 286.145905,366.847961 
	C285.739777,362.626556 285.993744,358.341644 286.381409,354.029694 
	C288.600128,353.379669 290.851654,353.268677 292.186035,352.105530 
	C302.070557,343.489532 311.855499,334.753113 321.444183,325.810547 
	C322.911224,324.442322 323.756073,321.869110 323.952026,319.765900 
	C324.982574,308.707306 325.712219,297.620697 326.632019,286.110291 
	C326.447052,282.279297 328.279755,280.769409 331.027313,278.796814 
	C335.893890,275.302887 341.043091,271.247589 343.990112,266.208435 
	C354.133820,248.863724 347.445496,226.579254 331.003113,221.423279 
	C332.066254,202.088577 333.380524,183.171417 333.958160,164.231766 
	C334.245575,154.807831 329.515686,147.379700 321.784882,141.934036 
	C312.547943,135.427399 302.009369,133.319931 291.034332,133.238785 
	C268.387665,133.071289 245.738602,133.117096 223.091217,133.223541 
	C214.192276,133.265366 205.508896,134.722382 197.449966,138.783966 
	C186.239227,144.434006 179.453888,153.230774 179.949432,166.103851 
	C180.665573,184.707336 182.014862,203.286453 182.771729,222.028000 
	C178.322510,225.638260 173.021072,228.353714 170.279785,232.688263 
	C160.428253,248.265625 167.170914,270.626923 183.502075,279.107208 
	C184.770737,279.765961 185.829071,280.829773 186.958588,282.080688 
	C187.884384,294.363129 189.065460,306.258636 189.666367,318.183380 
	C189.879532,322.413361 191.381073,325.261658 194.464172,327.931641 
	C203.002640,335.326050 211.227066,343.086609 219.854095,350.372742 
	C222.061142,352.236755 225.300461,352.878540 228.065430,354.541748 
	C228.065186,355.660797 228.064972,356.319916 228.064926,356.979004 
	C228.064011,370.380432 228.064011,370.380432 214.714478,373.732239 
	C209.072311,375.360779 203.823883,376.886383 198.222504,378.553467 
	C195.513672,379.473480 193.149857,380.228943 190.803131,381.034241 
	C175.412003,386.315918 160.234177,392.048370 146.794235,401.531799 
	C139.223251,406.873962 133.313660,413.253662 131.983185,422.971436 
	C131.514160,426.397247 130.195358,429.698334 129.422882,433.092438 
	C126.336128,446.654846 123.311653,460.231445 119.904732,473.847717 
	C98.266037,459.977966 79.302017,443.471649 62.619507,424.226349 
	C46.413700,405.531006 33.218430,385.025726 23.080004,362.482086 
	C12.774285,339.566467 5.796727,315.749146 2.960814,290.744385 
	C2.514153,286.806122 1.663732,282.913635 0.999999,279.000000 
	C1.000000,264.645782 1.000000,250.291550 1.387648,235.282867 
	C2.181635,230.713531 2.299349,226.742523 3.047495,222.894089 
	C5.459842,210.485046 7.629111,197.999313 10.764297,185.766708 
	C16.272036,164.277039 24.864864,143.943710 37.058411,125.390862 
	C45.176243,113.039314 53.924488,101.039673 63.167679,89.505272 
	C75.999306,73.492943 91.351921,59.994728 107.998276,48.019333 
	C126.274147,34.871651 146.007690,24.311918 167.098846,16.531813 
	C185.080826,9.898620 203.571838,4.969020 222.738876,2.961266 
	C226.849304,2.530696 230.914154,1.665164 235.000000,1.000001 
z"/>
<path fill="#FFFFFF" opacity="1.000000" stroke="none" 
	d="
M299.511108,373.809021 
	C304.542999,375.243408 309.574860,376.677795 314.903931,378.643860 
	C313.523773,423.204742 306.628326,466.566803 297.393982,510.165527 
	C333.525055,504.117218 365.912537,491.604523 395.747925,472.443420 
	C404.217621,466.411102 413.090118,460.861053 421.047363,454.215179 
	C429.549774,447.113953 437.453339,439.233459 445.146576,431.239227 
	C459.004395,416.839233 470.475739,400.638306 480.373901,383.264740 
	C489.566833,367.129150 497.253143,350.326935 502.055542,332.422821 
	C505.701080,318.831635 508.156281,304.915436 510.949036,291.105011 
	C511.725586,287.264954 511.818085,283.286499 512.612183,279.185791 
	C513.000000,356.965179 513.000000,434.930328 513.000000,512.947754 
	C342.444427,512.947754 171.888824,512.947754 1.000000,512.947754 
	C1.000000,435.312744 1.000000,357.625031 0.999999,279.468658 
	C1.663732,282.913635 2.514153,286.806122 2.960814,290.744385 
	C5.796727,315.749146 12.774285,339.566467 23.080004,362.482086 
	C33.218430,385.025726 46.413700,405.531006 62.619507,424.226349 
	C79.302017,443.471649 98.266037,459.977966 120.171051,474.059631 
	C121.020256,474.470947 121.202774,474.780426 121.473045,474.950378 
	C148.057373,491.665405 176.960999,502.524994 207.602951,508.948547 
	C210.356537,509.525787 213.211227,509.620575 216.483856,509.992218 
	C216.063599,507.573273 215.781219,505.949066 215.499252,504.324799 
	C211.633743,482.057953 207.146225,459.876099 204.090256,437.498688 
	C201.416138,417.917267 200.351227,398.116058 198.575439,378.411957 
	C203.823883,376.886383 209.072311,375.360779 214.939362,374.046844 
	C216.012314,375.849335 216.595703,377.415802 216.901306,379.034698 
	C220.496124,398.078613 237.702164,412.159088 257.468994,411.887329 
	C278.016632,411.036438 293.456818,397.819092 297.247833,378.396637 
	C297.563019,376.781708 298.736450,375.334290 299.511108,373.809021 
z"/>
<path fill="#FFFFFF" opacity="1.000000" stroke="none" 
	d="
M234.531342,1.000001 
	C230.914154,1.665164 226.849304,2.530696 222.738876,2.961266 
	C203.571838,4.969020 185.080826,9.898620 167.098846,16.531813 
	C146.007690,24.311918 126.274147,34.871651 107.998276,48.019333 
	C91.351921,59.994728 75.999306,73.492943 63.167679,89.505272 
	C53.924488,101.039673 45.176243,113.039314 37.058411,125.390862 
	C24.864864,143.943710 16.272036,164.277039 10.764297,185.766708 
	C7.629111,197.999313 5.459842,210.485046 3.047495,222.894089 
	C2.299349,226.742523 2.181635,230.713531 1.387648,234.814209 
	C1.000000,157.072952 1.000000,79.145912 1.000000,1.000000 
	C78.687424,1.000000 156.375061,1.000000 234.531342,1.000001 
z"/>
<path fill="#FFFFFF" opacity="1.000000" stroke="none" 
	d="
M513.000000,234.531342 
	C512.334839,230.914108 511.469299,226.849213 511.038696,222.738739 
	C509.030823,203.571487 504.100800,185.080444 497.467926,167.098068 
	C489.688202,146.006393 479.127716,126.272797 465.980011,107.997009 
	C454.004547,91.350662 440.506378,75.997231 424.493164,63.166054 
	C412.958282,53.923317 400.957703,45.176491 388.606537,37.057747 
	C370.053986,24.862614 349.719604,16.271725 328.230225,10.762694 
	C315.999542,7.627231 303.515289,5.459173 291.107941,3.047451 
	C287.258911,2.299277 283.287262,2.181688 279.185883,1.387703 
	C356.927032,1.000000 434.854095,1.000000 513.000000,1.000000 
	C513.000000,78.687424 513.000000,156.375061 513.000000,234.531342 
z"/>
<path fill="#E4B692" opacity="1.000000" stroke="none" 
	d="
M330.950256,221.831512 
	C347.445496,226.579254 354.133820,248.863724 343.990112,266.208435 
	C341.043091,271.247589 335.893890,275.302887 331.027313,278.796814 
	C328.279755,280.769409 326.447052,282.279297 326.577637,285.767090 
	C326.257660,285.251007 326.077698,284.644623 325.569275,282.931366 
	C324.080566,286.877655 323.185364,290.004547 321.765381,292.871552 
	C317.721771,301.035553 314.062134,309.481750 309.125244,317.085724 
	C304.054016,324.896576 296.046387,324.331573 290.697632,316.728912 
	C289.070404,314.415985 287.733246,311.791168 285.717255,309.887390 
	C283.316345,307.620148 280.573303,305.299561 277.543671,304.198517 
	C270.846375,301.764465 263.876801,300.079529 257.014771,297.614807 
	C257.003510,253.110397 256.995819,209.080215 257.409088,164.970612 
	C265.513824,163.580490 273.253021,162.529633 280.869934,160.905396 
	C297.069824,157.450958 307.938202,163.894913 312.091736,179.803223 
	C315.696686,193.610443 316.463776,207.642365 315.424988,221.826065 
	C315.241821,224.327209 315.399017,226.853302 315.399017,228.792816 
	C320.757935,226.393982 325.854095,224.112747 330.950256,221.831512 
z"/>
<path fill="#F1C9A5" opacity="1.000000" stroke="none" 
	d="
M256.988129,165.050049 
	C256.995819,209.080215 257.003510,253.110397 256.822144,297.751770 
	C256.372803,298.552155 256.169647,298.790131 255.624481,299.054871 
	C251.700912,299.945892 248.225372,301.240479 244.642807,301.699158 
	C234.686844,302.973846 227.956558,308.148773 222.906387,316.806915 
	C218.297226,324.709015 209.720764,324.843628 204.669373,317.010071 
	C199.768723,309.410187 196.144714,300.979370 192.069077,292.858734 
	C190.237610,289.209595 188.671616,285.427216 186.985168,281.705292 
	C185.829071,280.829773 184.770737,279.765961 183.502075,279.107208 
	C167.170914,270.626923 160.428253,248.265625 170.279785,232.688263 
	C173.021072,228.353714 178.322510,225.638260 183.132935,222.097656 
	C188.802338,224.368256 193.788254,226.721222 199.005096,229.183182 
	C198.827347,226.394989 198.637497,223.592621 198.471817,220.788818 
	C197.633957,206.610092 198.354095,192.554810 202.122986,178.787872 
	C206.126953,164.162201 217.243622,157.648880 232.170639,160.719864 
	C240.392105,162.411316 248.712387,163.622391 256.988129,165.050049 
z"/>
<path fill="#FB6121" opacity="1.000000" stroke="none" 
	d="
M395.711182,472.021057 
	C365.912537,491.604523 333.525055,504.117218 297.393982,510.165527 
	C306.628326,466.566803 313.523773,423.204742 315.308472,378.740417 
	C329.273254,384.025757 343.158478,389.680023 356.980865,395.483887 
	C373.292175,402.332916 381.982025,415.259827 385.941162,431.995331 
	C389.070587,445.223633 392.421753,458.399506 395.711182,472.021057 
z"/>
<path fill="#FB6121" opacity="1.000000" stroke="none" 
	d="
M198.222504,378.553467 
	C200.351227,398.116058 201.416138,417.917267 204.090256,437.498688 
	C207.146225,459.876099 211.633743,482.057953 215.499252,504.324799 
	C215.781219,505.949066 216.063599,507.573273 216.483856,509.992218 
	C213.211227,509.620575 210.356537,509.525787 207.602951,508.948547 
	C176.960999,502.524994 148.057373,491.665405 121.473045,474.950378 
	C121.202774,474.780426 121.020256,474.470947 120.530457,474.014709 
	C123.311653,460.231445 126.336128,446.654846 129.422882,433.092438 
	C130.195358,429.698334 131.514160,426.397247 131.983185,422.971436 
	C133.313660,413.253662 139.223251,406.873962 146.794235,401.531799 
	C160.234177,392.048370 175.412003,386.315918 190.803131,381.034241 
	C193.149857,380.228943 195.513672,379.473480 198.222504,378.553467 
z"/>
<path fill="#915F2D" opacity="1.000000" stroke="none" 
	d="
M257.409088,164.970612 
	C248.712387,163.622391 240.392105,162.411316 232.170639,160.719864 
	C217.243622,157.648880 206.126953,164.162201 202.122986,178.787872 
	C198.354095,192.554810 197.633957,206.610092 198.471817,220.788818 
	C198.637497,223.592621 198.827347,226.394989 199.005096,229.183182 
	C193.788254,226.721222 188.802338,224.368256 183.455231,221.945633 
	C182.014862,203.286453 180.665573,184.707336 179.949432,166.103851 
	C179.453888,153.230774 186.239227,144.434006 197.449966,138.783966 
	C205.508896,134.722382 214.192276,133.265366 223.091217,133.223541 
	C245.738602,133.117096 268.387665,133.071289 291.034332,133.238785 
	C302.009369,133.319931 312.547943,135.427399 321.784882,141.934036 
	C329.515686,147.379700 334.245575,154.807831 333.958160,164.231766 
	C333.380524,183.171417 332.066254,202.088577 331.003113,221.423279 
	C325.854095,224.112747 320.757935,226.393982 315.399017,228.792816 
	C315.399017,226.853302 315.241821,224.327209 315.424988,221.826065 
	C316.463776,207.642365 315.696686,193.610443 312.091736,179.803223 
	C307.938202,163.894913 297.069824,157.450958 280.869934,160.905396 
	C273.253021,162.529633 265.513824,163.580490 257.409088,164.970612 
z"/>
<path fill="#92602E" opacity="1.000000" stroke="none" 
	d="
M256.023682,299.076904 
	C256.169647,298.790131 256.372803,298.552155 256.825714,298.226013 
	C263.876801,300.079529 270.846375,301.764465 277.543671,304.198517 
	C280.573303,305.299561 283.316345,307.620148 285.717255,309.887390 
	C287.733246,311.791168 289.070404,314.415985 290.697632,316.728912 
	C296.046387,324.331573 304.054016,324.896576 309.125244,317.085724 
	C314.062134,309.481750 317.721771,301.035553 321.765381,292.871552 
	C323.185364,290.004547 324.080566,286.877655 325.569275,282.931366 
	C326.077698,284.644623 326.257660,285.251007 326.491974,286.200592 
	C325.712219,297.620697 324.982574,308.707306 323.952026,319.765900 
	C323.756073,321.869110 322.911224,324.442322 321.444183,325.810547 
	C311.855499,334.753113 302.070557,343.489532 292.186035,352.105530 
	C290.851654,353.268677 288.600128,353.379669 285.915955,353.970490 
	C275.700592,353.997589 266.342499,354.032043 256.743317,353.946350 
	C256.334930,353.760895 256.167633,353.695648 255.999695,353.184875 
	C255.999268,340.841248 255.999481,328.943085 256.449371,316.941559 
	C260.721130,316.838165 264.543213,316.838165 268.840454,316.838165 
	C266.215088,309.933044 261.304810,308.941254 255.998444,308.205322 
	C256.006653,304.876373 256.015167,301.976654 256.023682,299.076904 
z"/>
<path fill="#91602D" opacity="1.000000" stroke="none" 
	d="
M255.624481,299.054871 
	C256.015167,301.976654 256.006653,304.876373 255.625061,308.323059 
	C250.553955,309.482727 247.072937,311.643433 245.138947,316.517914 
	C249.093979,316.709839 252.546829,316.877380 255.999695,317.044952 
	C255.999481,328.943085 255.999268,340.841248 255.540344,353.284637 
	C246.076263,353.913849 237.070908,353.997833 228.065536,354.081818 
	C225.300461,352.878540 222.061142,352.236755 219.854095,350.372742 
	C211.227066,343.086609 203.002640,335.326050 194.464172,327.931641 
	C191.381073,325.261658 189.879532,322.413361 189.666367,318.183380 
	C189.065460,306.258636 187.884384,294.363129 186.958588,282.080688 
	C188.671616,285.427216 190.237610,289.209595 192.069077,292.858734 
	C196.144714,300.979370 199.768723,309.410187 204.669373,317.010071 
	C209.720764,324.843628 218.297226,324.709015 222.906387,316.806915 
	C227.956558,308.148773 234.686844,302.973846 244.642807,301.699158 
	C248.225372,301.240479 251.700912,299.945892 255.624481,299.054871 
z"/>
<path fill="#E4B692" opacity="1.000000" stroke="none" 
	d="
M256.984375,354.066498 
	C266.342499,354.032043 275.700592,353.997589 285.524109,354.022369 
	C285.993744,358.341644 285.739777,362.626556 286.145905,366.847961 
	C286.283142,368.274445 287.829010,370.209930 289.190002,370.744446 
	C292.341858,371.982269 295.773834,372.506744 299.301697,373.564728 
	C298.736450,375.334290 297.563019,376.781708 297.247833,378.396637 
	C293.456818,397.819092 278.016632,411.036438 257.457886,411.430908 
	C257.010345,391.974182 256.997375,373.020325 256.984375,354.066498 
z"/>
<path fill="#F0C9A5" opacity="1.000000" stroke="none" 
	d="
M256.743286,353.946350 
	C256.997375,373.020325 257.010345,391.974182 257.034424,411.384460 
	C237.702164,412.159088 220.496124,398.078613 216.901306,379.034698 
	C216.595703,377.415802 216.012314,375.849335 215.333099,373.943909 
	C228.064011,370.380432 228.064011,370.380432 228.064926,356.979004 
	C228.064972,356.319916 228.065186,355.660797 228.065430,354.541748 
	C237.070908,353.997833 246.076263,353.913849 255.540985,353.730133 
	C256.167633,353.695648 256.334930,353.760895 256.743286,353.946350 
z"/>
<path fill="#F5F0EB" opacity="1.000000" stroke="none" 
	d="
M256.449371,316.941559 
	C252.546829,316.877380 249.093979,316.709839 245.138947,316.517914 
	C247.072937,311.643433 250.553955,309.482727 255.625366,308.752228 
	C261.304810,308.941254 266.215088,309.933044 268.840454,316.838165 
	C264.543213,316.838165 260.721130,316.838165 256.449371,316.941559 
z"/>
</svg>